<svg xmlns="http://www.w3.org/2000/svg" viewBox="0 0 512 512">
  <defs>
    <linearGradient id="grad" x1="0%" y1="0%" x2="100%" y2="100%">
      <stop offset="0%" style="stop-color:#3b82f6;stop-opacity:1" />
      <stop offset="100%" style="stop-color:#1d4ed8;stop-opacity:1" />
    </linearGradient>
  </defs>
  <rect width="512" height="512" rx="128" fill="url(#grad)" />
  <path d="M256 128c-64.1 0-122.2 25.9-164.7 68.2c-6.1 6.1-6.1 16 0 22.1l22.1 22.1c6.1 6.1 16 6.1 22.1 0C165.1 210.8 208.5 192 256 192s90.9 18.8 120.6 48.4c6.1 6.1 16 6.1 22.1 0l22.1-22.1c6.1-6.1 6.1-16 0-22.1C378.2 153.9 320.1 128 256 128z" fill="white"/>
  <path d="M256 240c-35 0-66.6 14.1-89.8 37.1c-6.1 6.1-6.1 16 0 22.1l22.1 22.1c6.1 6.1 16 6.1 22.1 0c12.2-12.2 28.7-21.3 45.6-21.3s33.4 9.1 45.6 21.3c6.1 6.1 16 6.1 22.1 0l22.1-22.1c6.1-6.1 6.1-16 0-22.1c-23.2-23-54.8-37.1-89.8-37.1z" fill="white" opacity="0.9"/>
  <circle cx="256" cy="384" r="48" fill="white"/>
  <path d="M400 320l64 64l-64 64" fill="none" stroke="white" stroke-width="32" stroke-linecap="round" stroke-linejoin="round" opacity="0.5"/>
</svg>
